<svg width="19" height="18" viewBox="0 0 19 18" fill="none" xmlns="http://www.w3.org/2000/svg">
<path fill-rule="evenodd" clip-rule="evenodd" d="M10.5616 12.4794C8.68786 11.538 7.1529 10.0774 6.17384 8.30201L7.35933 7.59857C7.7309 7.37809 7.89091 6.92701 7.74009 6.5252L6.31695 2.73367C6.20287 2.42974 5.9025 2.23428 5.57519 2.25099L3.97656 2.33262C3.82988 2.34011 3.69264 2.37671 3.56971 2.43614C3.11032 2.55975 2.7685 2.95204 2.7548 3.42537C2.75161 3.53576 2.75 3.6465 2.75 3.75756C2.75 4.14854 2.76991 4.53545 2.80889 4.9174C3.41673 10.8739 8.6498 15.5574 15.0894 15.7495C15.2006 15.7528 15.3085 15.7408 15.411 15.7155C15.8475 15.7637 16.2424 15.4255 16.2424 14.9779L16.2424 14.8147C16.2461 14.7851 16.2484 14.7552 16.2494 14.7249C16.2512 14.6715 16.2488 14.6189 16.2424 14.5674L16.2424 13.1097C16.2424 12.6512 15.9385 12.2469 15.4946 12.115L12.431 11.2043C12.0197 11.082 11.5745 11.2199 11.3072 11.5524L10.5616 12.4794Z" fill="white"/>
<path fill-rule="evenodd" clip-rule="evenodd" d="M13.0559 5.38597C12.763 5.09623 12.8422 4.54818 13.2327 4.16187L13.9398 3.46239C14.3303 3.07607 14.8843 2.99778 15.1772 3.28751C15.4701 3.57725 15.391 4.1253 15.0004 4.51161L14.2933 5.2111C13.9028 5.59741 13.3488 5.6757 13.0559 5.38597Z" fill="#6374FF"/>
<path fill-rule="evenodd" clip-rule="evenodd" d="M10.5607 5.03146C10.1606 4.92541 9.95211 4.41164 10.0951 3.88393L10.3539 2.92841C10.4968 2.4007 10.937 2.05887 11.3371 2.16492C11.7372 2.27097 11.9457 2.78474 11.8028 3.31246L11.5439 4.26797C11.401 4.79569 10.9608 5.13751 10.5607 5.03146Z" fill="#6374FF"/>
<path fill-rule="evenodd" clip-rule="evenodd" d="M13.4606 7.90012C13.5678 8.29591 14.0872 8.50213 14.6206 8.36073L15.5866 8.1047C16.12 7.9633 16.4656 7.52782 16.3584 7.13203C16.2512 6.73625 15.7318 6.53003 15.1983 6.67143L14.2324 6.92746C13.6989 7.06886 13.3534 7.50434 13.4606 7.90012Z" fill="#6374FF"/>
</svg>
