<svg width="32" height="32" viewBox="0 0 32 32" fill="none" xmlns="http://www.w3.org/2000/svg">
<rect width="32" height="32" rx="7.2" fill="#F4F4F4"/>
<path d="M14.1775 19.2533L13.5 21.625L12.8225 19.2533C12.6474 18.6407 12.3191 18.0828 11.8685 17.6323C11.418 17.1818 10.8601 16.8534 10.2475 16.6783L7.875 16L10.2467 15.3225C10.8593 15.1474 11.4172 14.8191 11.8677 14.3685C12.3182 13.918 12.6466 13.3601 12.8217 12.7475L13.5 10.375L14.1775 12.7467C14.3526 13.3593 14.6809 13.9172 15.1315 14.3677C15.582 14.8182 16.1399 15.1466 16.7525 15.3217L19.125 16L16.7533 16.6775C16.1407 16.8526 15.5828 17.1809 15.1323 17.6315C14.6818 18.082 14.3534 18.6399 14.1783 19.2525L14.1775 19.2533ZM21.2158 13.2625L21 14.125L20.7842 13.2625C20.6606 12.768 20.405 12.3164 20.0447 11.9559C19.6843 11.5954 19.2328 11.3396 18.7383 11.2158L17.875 11L18.7383 10.7842C19.2328 10.6604 19.6843 10.4046 20.0447 10.0441C20.405 9.68365 20.6606 9.23201 20.7842 8.7375L21 7.875L21.2158 8.7375C21.3394 9.23211 21.5952 9.68382 21.9557 10.0443C22.3162 10.4048 22.7679 10.6606 23.2625 10.7842L24.125 11L23.2625 11.2158C22.7679 11.3394 22.3162 11.5952 21.9557 11.9557C21.5952 12.3162 21.3394 12.7679 21.2158 13.2625ZM20.0783 23.1392L19.75 24.125L19.4217 23.1392C19.3296 22.863 19.1745 22.6121 18.9687 22.4063C18.7629 22.2005 18.512 22.0454 18.2358 21.9533L17.25 21.625L18.2358 21.2967C18.512 21.2046 18.7629 21.0495 18.9687 20.8437C19.1745 20.6379 19.3296 20.387 19.4217 20.1108L19.75 19.125L20.0783 20.1108C20.1704 20.387 20.3255 20.6379 20.5313 20.8437C20.7371 21.0495 20.988 21.2046 21.2642 21.2967L22.25 21.625L21.2642 21.9533C20.988 22.0454 20.7371 22.2005 20.5313 22.4063C20.3255 22.6121 20.1704 22.863 20.0783 23.1392Z" stroke="#6374FF" stroke-width="1.2" stroke-linecap="round" stroke-linejoin="round"/>
</svg>
