<svg width="19" height="19" viewBox="0 0 19 19" fill="none" xmlns="http://www.w3.org/2000/svg">
<g clip-path="url(#clip0_3724_4233)">
<rect width="19" height="19" rx="9.5" fill="white"/>
<g clip-path="url(#clip1_3724_4233)">
<path d="M13.5471 13.1314C12.567 13.9155 11.195 14.5035 9.82287 14.5035C6.68667 14.5035 4.53053 12.1513 4.53053 9.01515C4.53053 5.87896 6.68667 3.72282 9.82287 3.72282C11.195 3.72282 12.567 4.11485 13.5471 5.09491L14.1351 5.68294L17.2713 2.74276L16.4873 2.15472C14.7232 0.586625 12.371 -0.393433 9.82287 -0.393433C4.33452 -0.393433 0.218262 3.72282 0.218262 9.21117C0.218262 14.6995 4.33452 18.8158 9.82287 18.8158C12.371 18.8158 14.7232 17.8357 16.4873 16.2676L17.2713 15.6796L14.1351 12.5434L13.5471 13.1314Z" fill="#17313B"/>
<path d="M9.62643 12.3466C11.3585 12.3466 12.7626 10.9424 12.7626 9.21036C12.7626 7.47828 11.3585 6.07416 9.62643 6.07416C7.89436 6.07416 6.49023 7.47828 6.49023 9.21036C6.49023 10.9424 7.89436 12.3466 9.62643 12.3466Z" fill="#EF4335"/>
</g>
</g>
<defs>
<clipPath id="clip0_3724_4233">
<rect width="19" height="19" rx="9.5" fill="white"/>
</clipPath>
<clipPath id="clip1_3724_4233">
<rect width="19.5" height="24" fill="white" transform="translate(-0.328125 -3)"/>
</clipPath>
</defs>
</svg>
