<svg width="12" height="12" viewBox="0 0 12 12" fill="none" xmlns="http://www.w3.org/2000/svg">
<path d="M5.69648 1.41512C5.87981 0.838878 6.69519 0.838876 6.87852 1.41511L7.78615 4.26793C7.86803 4.52531 8.10707 4.70011 8.37717 4.70011L11.3416 4.70011C11.9393 4.70011 12.1912 5.46227 11.7112 5.8184L9.29059 7.61449C9.07778 7.7724 8.9888 8.04807 9.06914 8.3006L9.9884 11.19C10.1709 11.7637 9.5113 12.2348 9.02781 11.8761L6.65707 10.117C6.4376 9.95416 6.1374 9.95416 5.91793 10.117L3.54719 11.8761C3.0637 12.2348 2.40407 11.7637 2.58659 11.19L3.50586 8.3006C3.5862 8.04807 3.49722 7.7724 3.28441 7.61449L0.863803 5.8184C0.383848 5.46227 0.635726 4.70011 1.23337 4.70011L4.19783 4.70011C4.46792 4.70011 4.70696 4.52532 4.78885 4.26793L5.69648 1.41512Z" fill="#FF955A"/>
</svg>
