<svg width="25" height="24" viewBox="0 0 25 24" fill="none" xmlns="http://www.w3.org/2000/svg">
<path d="M7.92847 4.99999C7.9282 5.53043 7.71723 6.03903 7.34197 6.41391C6.96671 6.7888 6.4579 6.99926 5.92747 6.99899C5.39703 6.99873 4.88843 6.78776 4.51355 6.4125C4.13866 6.03724 3.9282 5.52843 3.92847 4.99799C3.92873 4.46756 4.1397 3.95896 4.51496 3.58407C4.89022 3.20919 5.39903 2.99873 5.92947 2.99899C6.4599 2.99926 6.9685 3.21023 7.34339 3.58549C7.71827 3.96075 7.92873 4.46956 7.92847 4.99999ZM7.98847 8.47999H3.98847V21H7.98847V8.47999ZM14.3085 8.47999H10.3285V21H14.2685V14.43C14.2685 10.77 19.0385 10.43 19.0385 14.43V21H22.9885V13.07C22.9885 6.89999 15.9285 7.12999 14.2685 10.16L14.3085 8.47999Z" fill="#C9C9CD"/>
</svg>
