<svg width="420" height="459" viewBox="0 0 420 459" fill="none" xmlns="http://www.w3.org/2000/svg">
<rect y="12.1124" width="406" height="447" rx="20" transform="rotate(-1.69774 0 12.1124)" fill="#FFB987"/>
<g clip-path="url(#clip0_1076_2885)">
<path d="M342.532 146H71.5322C61.0388 146 52.5322 154.507 52.5322 165V167C52.5322 177.494 61.0388 186 71.5322 186H342.532C353.026 186 361.532 177.494 361.532 167V165C361.532 154.507 353.026 146 342.532 146Z" fill="white"/>
<path d="M217.032 164H69.0322C67.6515 164 66.5322 165.119 66.5322 166.5C66.5322 167.881 67.6515 169 69.0322 169H217.032C218.413 169 219.532 167.881 219.532 166.5C219.532 165.119 218.413 164 217.032 164Z" fill="#F5F5F5"/>
<path d="M329.201 154.41C327.541 152.681 325.421 151.463 323.092 150.898C320.763 150.332 318.32 150.444 316.052 151.219C313.784 151.994 311.784 153.4 310.288 155.272C308.791 157.144 307.86 159.405 307.604 161.788C307.348 164.171 307.778 166.578 308.842 168.725C309.907 170.873 311.562 172.672 313.614 173.911C315.666 175.15 318.029 175.778 320.425 175.72C322.821 175.663 325.151 174.922 327.141 173.586L336.241 183.054C336.297 183.112 336.364 183.158 336.438 183.191C336.512 183.223 336.591 183.241 336.672 183.242C336.752 183.244 336.832 183.229 336.907 183.2C336.982 183.17 337.051 183.126 337.109 183.07L339.376 180.895C339.434 180.84 339.48 180.773 339.513 180.699C339.545 180.625 339.562 180.546 339.564 180.465C339.565 180.385 339.551 180.305 339.521 180.23C339.492 180.155 339.448 180.086 339.392 180.028L330.294 170.556C332.039 168.165 332.885 165.236 332.685 162.284C332.485 159.331 331.252 156.543 329.201 154.41ZM326.366 169.631C325.082 170.866 323.461 171.691 321.708 172.004C319.955 172.317 318.148 172.103 316.516 171.389C314.885 170.675 313.501 169.494 312.541 167.994C311.581 166.494 311.087 164.743 311.122 162.962C311.157 161.182 311.719 159.451 312.738 157.99C313.756 156.529 315.185 155.403 316.843 154.753C318.501 154.104 320.315 153.961 322.055 154.343C323.794 154.724 325.382 155.613 326.616 156.897C328.271 158.618 329.173 160.926 329.127 163.313C329.08 165.7 328.087 167.971 326.366 169.626V169.631Z" fill="#6C63FF"/>
<path d="M313.456 160.634C312.442 160.634 312.442 162.208 313.456 162.208C314.47 162.208 314.467 160.634 313.456 160.634Z" fill="#6C63FF"/>
<path d="M320.514 155.589C319.23 155.551 317.957 155.84 316.816 156.43C315.675 157.02 314.702 157.89 313.991 158.96C313.561 159.634 314.782 160.229 315.211 159.558C316.298 157.848 318.378 156.764 320.62 156.821C321.754 156.86 322.86 157.178 323.841 157.747C324.822 158.316 325.647 159.118 326.244 160.083C326.674 160.792 327.802 160.148 327.372 159.444C325.999 157.188 323.33 155.652 320.514 155.589Z" fill="#6C63FF"/>
<path d="M205.06 59.407H185.231V67.6267H196.647C195.585 72.8483 191.135 75.8465 185.231 75.8465C181.929 75.7979 178.778 74.4519 176.46 72.0993C174.141 69.7467 172.842 66.5765 172.842 63.2736C172.842 59.9707 174.141 56.8004 176.46 54.4478C178.778 52.0952 181.929 50.7492 185.231 50.7007C188.089 50.6972 190.859 51.6891 193.065 53.5058L199.254 47.3165C196.67 45.0465 193.574 43.437 190.232 42.6263C186.89 41.8155 183.4 41.8276 180.064 42.6615C176.727 43.4954 173.642 45.1263 171.074 47.4142C168.506 49.7021 166.531 52.5788 165.319 55.7975C164.107 59.0162 163.694 62.4809 164.115 65.8944C164.536 69.3079 165.779 72.5684 167.737 75.3961C169.695 78.2238 172.309 80.5344 175.356 82.1297C178.403 83.725 181.792 84.5574 185.231 84.5555C195.87 84.5555 205.541 76.8169 205.541 63.2776C205.524 61.9736 205.363 60.6755 205.06 59.407Z" fill="#060B07" fill-opacity="0.03"/>
<mask id="mask0_1076_2885" style="mask-type:luminance" maskUnits="userSpaceOnUse" x="166" y="45" width="37" height="37">
<path d="M202.138 59.9643H185.168V67.0043H194.94C194.029 71.4757 190.218 74.0444 185.168 74.0444C182.313 74.0444 179.575 72.9102 177.556 70.8913C175.537 68.8724 174.403 66.1342 174.403 63.2791C174.403 60.4239 175.537 57.6857 177.556 55.6668C179.575 53.648 182.313 52.5138 185.168 52.5138C187.615 52.5102 189.987 53.3589 191.877 54.9139L197.177 49.6135C194.965 47.6662 192.313 46.2848 189.45 45.5879C186.586 44.8911 183.597 44.8995 180.737 45.6125C177.878 46.3255 175.234 47.7218 173.033 49.6815C170.832 51.6412 169.139 54.1057 168.101 56.8636C167.062 59.6215 166.708 62.5902 167.069 65.5151C167.43 68.4399 168.496 71.2333 170.174 73.6557C171.853 76.078 174.094 78.0568 176.705 79.4222C179.317 80.7877 182.221 81.4989 185.168 81.4949C194.277 81.4949 202.564 74.8707 202.564 63.2832C202.545 62.1645 202.402 61.0514 202.138 59.9643Z" fill="white"/>
</mask>
<g mask="url(#mask0_1076_2885)">
<path d="M164.459 74.0415V52.5109L178.536 63.2749L164.459 74.0415Z" fill="#FBBC05"/>
<path d="M164.459 52.511L178.536 63.275L184.334 58.2246L204.196 54.9954V43.4024H164.459V52.511Z" fill="#EA4335"/>
<path d="M164.459 74.0416L189.303 54.9954L195.846 55.8109L204.196 43.4024V83.1502H164.459V74.0416Z" fill="#34A853"/>
<path d="M204.196 83.1501L178.525 63.2749L175.212 60.7905L204.196 52.5109V83.1501Z" fill="#4285F4"/>
</g>
<path d="M128.883 87.0001C140.427 87.0001 149.248 95.5434 149.248 106.729C149.248 117.914 140.427 126.463 128.883 126.463C117.339 126.463 108.532 117.917 108.532 106.729C108.532 95.5406 117.339 87.0001 128.883 87.0001Z" fill="url(#paint0_linear_1076_2885)"/>
<path d="M128.008 99.9579C128.054 99.2729 128.105 98.5988 128.201 97.9111H112.707V99.9579C114.265 100.056 115.776 100.203 117.328 100.298C120.25 103.853 123.172 107.411 126.143 111.013V116.539C124.488 116.686 122.83 116.783 121.174 116.93V118.713H136.472V116.919C134.817 116.819 133.159 116.772 131.503 116.724C131.552 114.777 131.601 112.779 131.65 110.831C134.523 108.297 137.358 105.764 140.177 103.22C141.637 103.122 143.099 103.027 144.607 102.88V100.502C140.272 100.55 135.985 100.599 131.65 100.695V102.695C133.256 102.793 134.866 102.839 136.472 102.888C134.379 104.69 132.281 106.443 130.188 108.248C128.043 105.617 125.901 102.94 123.756 100.306C125.181 100.156 126.591 100.061 128.008 99.9579Z" fill="url(#paint1_linear_1076_2885)"/>
<path d="M163.439 88.9547L151.696 88.3675C151.501 97.6746 151.305 107.028 151.112 116.335C152.963 116.528 154.863 116.723 156.711 116.919C158.946 107.565 161.188 98.2436 163.439 88.9547ZM150.563 126.416H157.285V120.817L149.979 120.233C150.172 122.326 150.37 124.372 150.563 126.416Z" fill="url(#paint2_linear_1076_2885)"/>
<path d="M129.616 89.0392C139.97 89.0392 147.877 96.699 147.877 106.732C147.877 116.765 139.967 124.422 129.616 124.422C119.265 124.422 111.355 116.759 111.355 106.726C111.355 96.6936 119.263 89.0392 129.616 89.0392Z" fill="#6B0094"/>
<path d="M128.831 100.662C128.872 100.048 128.918 99.4361 129.005 98.8272H115.112V100.662C116.507 100.749 117.863 100.879 119.263 100.966C121.883 104.155 124.504 107.346 127.167 110.575V115.514C125.683 115.645 124.196 115.732 122.712 115.865V117.479H136.431V115.865C134.947 115.775 133.46 115.734 131.976 115.688C132.022 113.943 132.063 112.154 132.106 110.404C134.68 108.132 137.219 105.862 139.753 103.589C141.06 103.502 142.373 103.416 143.726 103.285V101.143C139.84 101.189 135.993 101.23 132.106 101.317V103.111C133.547 103.198 134.99 103.239 136.431 103.285C134.553 104.902 132.672 106.473 130.796 108.091C128.874 105.731 126.95 103.329 125.028 100.969C126.295 100.836 127.559 100.749 128.831 100.662Z" fill="white"/>
<path d="M160.589 90.7896L150.059 90.2622C149.882 98.607 149.708 106.995 149.534 115.343C151.193 115.517 152.897 115.691 154.558 115.867C156.567 107.479 158.578 99.1199 160.589 90.7896ZM149.056 124.383H155.085V119.36L148.534 118.836C148.705 120.714 148.882 122.549 149.056 124.383Z" fill="#6B0094"/>
<path d="M195.905 131.357L188.963 126.491V100.851L195.949 102.99V120.231L189.164 126.276L205.72 117.567L201.132 115.491L198.025 108.755L213.369 113.458V120.957L195.905 131.357Z" fill="url(#paint3_linear_1076_2885)"/>
<path d="M224.642 123.365H224.582V125.246H222.497V105.966L224.582 106.589V114.515H224.634C225.659 112.786 227.16 111.921 229.135 111.919C230.806 111.919 232.113 112.502 233.057 113.667C234.001 114.832 234.474 116.394 234.476 118.353C234.476 120.527 233.946 122.272 232.886 123.585C231.826 124.899 230.376 125.554 228.537 125.551C227.749 125.58 226.969 125.391 226.282 125.006C225.595 124.62 225.027 124.053 224.642 123.365ZM224.582 118.114V119.932C224.559 120.948 224.936 121.932 225.631 122.672C226.005 123.055 226.456 123.352 226.955 123.546C227.454 123.739 227.988 123.823 228.522 123.792C229.056 123.762 229.577 123.617 230.051 123.368C230.524 123.119 230.938 122.771 231.266 122.349C231.991 121.383 232.353 120.039 232.353 118.318C232.353 116.868 232.018 115.732 231.347 114.909C231.022 114.506 230.607 114.184 230.135 113.97C229.663 113.755 229.147 113.655 228.629 113.675C228.078 113.655 227.529 113.758 227.023 113.977C226.517 114.196 226.067 114.526 225.705 114.942C224.947 115.822 224.547 116.953 224.582 118.114Z" fill="url(#paint4_linear_1076_2885)"/>
<path d="M238.281 109.261C238.105 109.264 237.93 109.232 237.766 109.167C237.602 109.102 237.453 109.004 237.327 108.88C237.198 108.755 237.096 108.605 237.028 108.438C236.96 108.271 236.928 108.092 236.933 107.913C236.93 107.733 236.963 107.555 237.03 107.389C237.097 107.222 237.197 107.071 237.324 106.944C237.451 106.817 237.602 106.717 237.768 106.65C237.935 106.583 238.113 106.55 238.292 106.553C238.472 106.551 238.651 106.584 238.818 106.65C238.985 106.717 239.137 106.816 239.265 106.942C239.392 107.068 239.493 107.219 239.562 107.384C239.631 107.549 239.666 107.727 239.666 107.906C239.666 108.085 239.631 108.262 239.562 108.428C239.493 108.593 239.392 108.743 239.265 108.869C239.137 108.998 238.983 109.1 238.814 109.167C238.645 109.234 238.463 109.266 238.281 109.261ZM239.298 125.257H237.213V112.224H239.298V125.257Z" fill="url(#paint5_linear_1076_2885)"/>
<path d="M253.577 125.249H251.492V117.82C251.492 115.057 250.483 113.675 248.464 113.675C247.972 113.665 247.484 113.765 247.036 113.969C246.588 114.173 246.192 114.474 245.876 114.852C245.176 115.68 244.811 116.739 244.851 117.823V125.252H242.767V112.223H244.851V114.398H244.903C245.887 112.752 247.311 111.93 249.176 111.93C250.6 111.93 251.688 112.39 252.438 113.311C253.188 114.231 253.565 115.56 253.569 117.298L253.577 125.249Z" fill="url(#paint6_linear_1076_2885)"/>
<path d="M268.344 124.211C268.344 128.993 266.055 131.384 261.476 131.384C260.011 131.418 258.559 131.102 257.241 130.462L257.812 128.595C259.086 129.226 260.258 129.576 261.432 129.576C264.531 129.576 266.246 127.894 266.246 124.485V123.061H266.194C265.203 124.723 263.711 125.553 261.718 125.553C260.977 125.579 260.239 125.436 259.562 125.135C258.884 124.834 258.284 124.384 257.806 123.817C256.819 122.659 256.281 121.085 256.281 119.133C256.281 116.921 256.855 115.181 257.912 113.876C258.97 112.571 260.462 111.881 262.31 111.881C264.066 111.881 265.335 112.517 266.184 113.925H266.235V112.224H268.344V124.211ZM266.26 119.364V117.442C266.262 116.461 265.88 115.517 265.195 114.813C264.51 114.109 263.577 113.702 262.596 113.678C259.576 113.678 258.497 116.426 258.475 119.019C258.475 121.495 259.733 123.705 262.302 123.705C264.871 123.705 266.222 121.669 266.246 119.359L266.26 119.364Z" fill="url(#paint7_linear_1076_2885)"/>
<path d="M197.699 130.523L191.148 125.921V101.686L197.751 103.708V120.003L191.339 125.712L206.987 117.478L202.638 115.516L199.703 109.15L214.207 113.61V120.678L197.699 130.523Z" fill="#FDE89E"/>
<path d="M224.853 122.969H224.804V124.755H222.842V106.543L224.812 107.13V114.621H224.853C225.823 112.99 227.242 112.175 229.11 112.175C230.688 112.175 231.924 112.726 232.817 113.828C233.711 114.929 234.158 116.406 234.158 118.258C234.158 120.319 233.657 121.968 232.654 123.205C231.652 124.443 230.284 125.05 228.55 125.026C227.804 125.057 227.064 124.882 226.412 124.519C225.759 124.155 225.22 123.619 224.853 122.969ZM224.804 118.003V119.721C224.785 120.681 225.145 121.61 225.805 122.308C226.158 122.67 226.584 122.952 227.056 123.135C227.527 123.318 228.032 123.397 228.537 123.368C229.042 123.339 229.534 123.202 229.982 122.966C230.429 122.73 230.82 122.401 231.13 122.001C231.807 121.095 232.146 119.827 232.146 118.196C232.146 116.826 231.83 115.752 231.197 114.975C230.89 114.593 230.497 114.289 230.05 114.086C229.604 113.884 229.116 113.789 228.626 113.808C228.105 113.789 227.587 113.886 227.108 114.093C226.63 114.3 226.204 114.612 225.862 115.004C225.153 115.836 224.78 116.902 224.815 117.994L224.804 118.003Z" fill="#FDE89E"/>
<path d="M237.754 109.626C237.587 109.629 237.421 109.598 237.266 109.536C237.111 109.474 236.97 109.382 236.851 109.264C236.729 109.146 236.633 109.004 236.569 108.847C236.505 108.689 236.474 108.52 236.479 108.351C236.476 108.182 236.506 108.014 236.569 107.857C236.632 107.701 236.726 107.558 236.844 107.438C236.963 107.318 237.105 107.223 237.261 107.159C237.418 107.095 237.585 107.063 237.754 107.065C237.924 107.062 238.093 107.092 238.25 107.156C238.408 107.219 238.552 107.313 238.673 107.432C238.793 107.551 238.888 107.693 238.953 107.849C239.018 108.006 239.052 108.173 239.052 108.343C239.052 108.512 239.018 108.679 238.953 108.836C238.888 108.992 238.793 109.134 238.673 109.253C238.553 109.374 238.409 109.469 238.251 109.533C238.093 109.597 237.924 109.629 237.754 109.626ZM238.716 124.755H236.745V112.439H238.716V124.755Z" fill="#FDE89E"/>
<path d="M252.209 124.755H250.238V117.728C250.238 115.115 249.284 113.809 247.376 113.809C246.911 113.799 246.45 113.894 246.026 114.086C245.603 114.278 245.228 114.564 244.93 114.92C244.269 115.703 243.924 116.704 243.962 117.728V124.755H241.991V112.439H243.962V114.483H244.011C244.94 112.928 246.287 112.15 248.05 112.15C249.396 112.15 250.427 112.585 251.141 113.455C251.855 114.325 252.212 115.581 252.212 117.223L252.209 124.755Z" fill="#FDE89E"/>
<path d="M266.169 123.763C266.169 128.282 264.006 130.542 259.678 130.542C258.299 130.574 256.931 130.278 255.688 129.678L256.232 127.911C257.439 128.506 258.548 128.838 259.654 128.838C262.584 128.838 264.204 127.248 264.204 124.026V122.667H264.155C263.206 124.24 261.793 125.027 259.918 125.027C259.218 125.053 258.522 124.919 257.882 124.637C257.241 124.354 256.673 123.93 256.221 123.396C255.289 122.309 254.78 120.814 254.78 118.971C254.78 116.878 255.324 115.236 256.33 114.002C257.335 112.768 258.741 112.115 260.488 112.115C262.147 112.115 263.348 112.716 264.15 114.045H264.199V112.439H266.169V123.763ZM264.185 119.183V117.367C264.188 116.441 263.828 115.55 263.183 114.886C262.538 114.221 261.659 113.834 260.733 113.809C257.879 113.809 256.86 116.405 256.838 118.857C256.838 121.197 258.028 123.284 260.456 123.284C262.883 123.284 264.161 121.365 264.185 119.183Z" fill="#FDE89E"/>
<path d="M272.277 78.4456C270.834 78.4456 269.331 79.5002 269.331 79.5002V78.8234C269.331 78.6739 269.271 78.6141 269.124 78.6141H267.281C267.252 78.6107 267.222 78.6135 267.193 78.6224C267.165 78.6314 267.139 78.6462 267.116 78.6659C267.094 78.6857 267.076 78.7099 267.064 78.7371C267.052 78.7642 267.045 78.7936 267.045 78.8234V93.2705C267.045 93.42 267.105 93.5097 267.254 93.5097H269.127C269.157 93.5092 269.186 93.5024 269.213 93.4897C269.24 93.4771 269.264 93.4589 269.284 93.4363C269.303 93.4137 269.318 93.3873 269.326 93.3587C269.335 93.3301 269.337 93.3001 269.334 93.2705V80.9028C269.919 80.5617 270.581 80.3747 271.258 80.3592C272.264 80.3592 273.055 80.8593 273.055 81.8814V93.2759C273.052 93.3078 273.056 93.34 273.067 93.3701C273.078 93.4002 273.095 93.4276 273.118 93.4504C273.14 93.4732 273.167 93.4908 273.197 93.502C273.227 93.5131 273.259 93.5176 273.291 93.5151H275.131C275.161 93.5146 275.191 93.5078 275.218 93.4952C275.245 93.4825 275.269 93.4643 275.288 93.4417C275.308 93.4191 275.322 93.3927 275.331 93.3641C275.339 93.3356 275.342 93.3055 275.338 93.2759V81.2263C275.338 79.4133 274.224 78.4456 272.277 78.4456Z" fill="url(#paint8_linear_1076_2885)"/>
<path d="M286.604 71.1994H284.767C284.737 71.196 284.707 71.1988 284.679 71.2077C284.65 71.2167 284.624 71.2315 284.602 71.2512C284.579 71.271 284.562 71.2952 284.549 71.3223C284.537 71.3495 284.53 71.3789 284.53 71.4087V78.6961C283.936 78.4479 283.303 78.3071 282.66 78.2802C279.67 78.2802 277.615 81.1425 277.615 86.644C277.615 91.3574 279.613 93.888 282.22 93.888C283.307 93.888 284.226 93.2574 284.889 92.6675L285.291 93.3498C285.312 93.4029 285.35 93.4473 285.4 93.476C285.449 93.5046 285.507 93.5157 285.563 93.5074H286.623C286.653 93.5073 286.683 93.5008 286.71 93.4883C286.738 93.4758 286.762 93.4576 286.782 93.435C286.802 93.4124 286.816 93.3858 286.825 93.3571C286.834 93.3283 286.836 93.298 286.833 93.2682V71.406C286.833 71.2565 286.773 71.1967 286.626 71.1967L286.604 71.1994ZM280.045 86.1493C280.045 83.1186 280.931 80.115 282.742 80.115C283.395 80.1207 284.026 80.3554 284.525 80.7782V91.4606C284.029 91.751 283.468 91.9144 282.894 91.9363C280.915 91.9336 280.045 89.6068 280.045 86.1575V86.1493Z" fill="url(#paint9_linear_1076_2885)"/>
<path d="M293.661 78.3101C290.595 78.3101 289.081 82.3248 289.081 86.6956C289.081 91.2703 291.239 93.8335 294.017 93.8335C295.154 93.7918 296.263 93.4747 297.249 92.9094C297.298 92.8857 297.337 92.8451 297.358 92.795C297.379 92.745 297.381 92.689 297.363 92.6375L297.13 91.6699C297.126 91.6426 297.117 91.6164 297.103 91.5927C297.089 91.569 297.07 91.5483 297.048 91.5318C297.026 91.5154 297.001 91.5035 296.975 91.4968C296.948 91.4902 296.92 91.489 296.893 91.4932C296.222 91.6628 295.535 91.7612 294.844 91.7868C292.571 91.7868 291.53 89.7644 291.53 87.0816V86.4292C292.129 86.5133 292.733 86.566 293.338 86.5869H297.624V85.3474C297.624 80.77 296.023 78.3209 293.664 78.3209L293.661 78.3101ZM293.514 84.7168C292.835 84.7168 291.612 84.8853 291.612 84.8853C291.612 84.8853 291.628 84.3933 291.688 83.9204C291.96 81.4115 292.552 80.1421 293.591 80.1421C294.488 80.1421 295.105 81.4414 295.251 83.7138C295.281 84.1868 295.281 84.7168 295.281 84.7168H293.533H293.514Z" fill="url(#paint10_linear_1076_2885)"/>
<path d="M263.544 80.1852C262.862 78.8424 261.641 78.2552 260.26 78.2552C259.151 78.3129 258.062 78.5707 257.045 79.0163C256.863 79.0979 256.749 79.1713 256.749 79.3126C256.756 79.4091 256.787 79.5024 256.838 79.5844L257.466 80.9272C257.484 80.9808 257.517 81.0277 257.563 81.0613C257.608 81.0949 257.663 81.1136 257.719 81.1148C257.81 81.1075 257.897 81.0734 257.969 81.0169C258.877 80.4352 259.543 80.1172 260.067 80.1172C260.763 80.1172 261.236 80.5793 261.527 81.2751C261.814 82.1026 261.942 82.9769 261.905 83.852C261.905 83.9852 261.905 84.1564 261.905 84.1564C261.27 83.8201 260.566 83.6341 259.847 83.6128C257.186 83.6128 255.751 86.1434 255.751 88.848C255.751 91.7646 257.428 93.901 259.445 93.901C260.568 93.901 261.584 93.2405 262.264 92.4115C262.264 92.4115 262.625 93.2759 262.674 93.3792C262.69 93.4268 262.722 93.4673 262.765 93.4932C262.808 93.5192 262.858 93.5288 262.908 93.5205H263.995C264.025 93.52 264.054 93.5132 264.081 93.5005C264.108 93.4879 264.132 93.4697 264.152 93.4471C264.171 93.4245 264.186 93.3981 264.195 93.3695C264.203 93.3409 264.206 93.3109 264.202 93.2813V84.8876C264.202 82.8272 264.098 81.2561 263.555 80.1852H263.544ZM261.913 91.1638C261.457 91.6344 260.839 91.9125 260.184 91.9412C259.913 91.9405 259.646 91.8713 259.409 91.7402C259.171 91.6091 258.97 91.4202 258.825 91.191C258.396 90.5985 258.197 89.6852 258.197 88.6767C258.197 87.0784 258.787 85.4394 260.038 85.4394C260.72 85.4425 261.382 85.6762 261.916 86.1026V91.1666L261.913 91.1638Z" fill="url(#paint11_linear_1076_2885)"/>
<path d="M307.35 78.6144H305.719C305.648 78.6098 305.578 78.629 305.52 78.6689C305.461 78.7088 305.417 78.7671 305.396 78.8346C305.292 79.1064 304.597 80.9358 304.308 81.6941C304.105 82.2378 303.558 83.7844 303.558 83.7844H303.496C303.496 83.7844 303.093 82.6564 302.876 82.0964C302.702 81.6398 301.789 79.2315 301.669 78.9325C301.607 78.7721 301.539 78.6144 301.302 78.6144H299.5C299.459 78.6168 299.419 78.6284 299.383 78.6485C299.347 78.6686 299.316 78.6965 299.292 78.7303C299.269 78.7641 299.253 78.8028 299.247 78.8434C299.24 78.8841 299.243 78.9257 299.255 78.9651C299.321 79.101 302.183 85.6273 302.183 85.6273C302.183 85.6273 299.109 92.9365 299.019 93.0996C298.995 93.1414 298.982 93.1889 298.982 93.2371C298.983 93.2854 298.996 93.3328 299.02 93.3743C299.045 93.4158 299.08 93.45 299.123 93.4734C299.165 93.4968 299.213 93.5085 299.261 93.5073H300.835C301.106 93.5073 301.207 93.366 301.289 93.1404C301.514 92.507 301.851 91.6236 302.33 90.2591C302.645 89.3539 303.145 87.7692 303.145 87.7692H303.199C303.199 87.7692 303.743 89.3866 303.95 89.9139C304.463 91.2512 305.124 92.9963 305.192 93.1757C305.26 93.3551 305.366 93.5019 305.551 93.5019H307.328C307.505 93.5019 307.6 93.3007 307.505 93.124C307.307 92.7054 305.602 88.5793 304.433 85.8692C304.433 85.8692 307.491 79.1173 307.551 78.9515C307.611 78.7857 307.592 78.609 307.342 78.609L307.35 78.6144Z" fill="url(#paint12_linear_1076_2885)"/>
<path d="M257.613 69.0246H255.542C255.47 69.0157 255.398 69.0332 255.338 69.0737C255.279 69.1142 255.236 69.175 255.218 69.2448C255.191 69.3752 252.114 78.7584 251.888 79.5521C251.731 80.0957 251.211 82.0637 251.089 82.5421L250.018 79.6173C249.746 78.8019 247.265 71.8406 247.191 71.5606C247.151 71.4084 247.08 71.2182 246.813 71.2182H244.791C244.752 71.22 244.713 71.2305 244.678 71.2488C244.643 71.267 244.613 71.2927 244.589 71.324C244.564 71.3553 244.548 71.3915 244.539 71.43C244.53 71.4685 244.53 71.5085 244.538 71.5471C244.59 71.6558 248.241 81.376 249.703 85.089V93.2435C249.703 93.393 249.763 93.4827 249.912 93.4827H251.815C251.845 93.4822 251.874 93.4754 251.901 93.4627C251.928 93.4501 251.952 93.4319 251.972 93.4093C251.991 93.3867 252.006 93.3603 252.014 93.3317C252.023 93.3031 252.025 93.2731 252.021 93.2435V85.1433C253.25 81.7076 257.73 69.4813 257.792 69.3426C257.855 69.204 257.836 69.0001 257.583 69.0001L257.613 69.0246Z" fill="url(#paint13_linear_1076_2885)"/>
<path d="M272.536 78.6522C271.193 78.6522 269.79 79.6334 269.79 79.6334V79.0028C269.79 78.8642 269.736 78.8098 269.597 78.8098H267.882C267.855 78.8068 267.827 78.8095 267.801 78.8178C267.775 78.826 267.75 78.8397 267.73 78.8578C267.709 78.876 267.692 78.8982 267.681 78.9232C267.669 78.9482 267.663 78.9753 267.662 79.0028V92.455C267.662 92.5937 267.716 92.6779 267.855 92.6779H269.597C269.625 92.6774 269.653 92.671 269.678 92.6592C269.703 92.6474 269.725 92.6304 269.744 92.6094C269.762 92.5884 269.775 92.5638 269.783 92.5372C269.791 92.5106 269.794 92.4826 269.79 92.455V80.9409C270.334 80.6207 270.951 80.4439 271.582 80.4271C272.517 80.4271 273.256 80.8919 273.256 81.8433V92.4442C273.253 92.4739 273.257 92.5039 273.267 92.5321C273.277 92.5603 273.293 92.5859 273.314 92.6072C273.335 92.6284 273.36 92.6448 273.388 92.6552C273.416 92.6655 273.446 92.6696 273.476 92.667H275.191C275.219 92.6669 275.247 92.6608 275.272 92.6492C275.298 92.6375 275.32 92.6206 275.339 92.5994C275.357 92.5783 275.37 92.5536 275.378 92.5268C275.386 92.5 275.388 92.4718 275.384 92.4442V81.2426C275.387 79.5519 274.352 78.6522 272.536 78.6522Z" fill="#1C1A33"/>
<path d="M285.876 71.9058H284.16C284.133 71.9027 284.105 71.9054 284.079 71.9137C284.053 71.922 284.029 71.9356 284.008 71.9538C283.987 71.9719 283.97 71.9942 283.959 72.0192C283.947 72.0441 283.941 72.0712 283.94 72.0988V78.8942C283.387 78.6634 282.797 78.5328 282.198 78.5082C279.412 78.5082 277.501 81.172 277.501 86.2958C277.501 90.6856 279.36 93.0395 281.788 93.0395C282.81 93.0395 283.655 92.4524 284.275 91.9034L284.65 92.5394C284.668 92.5869 284.702 92.627 284.746 92.6536C284.79 92.6801 284.841 92.6915 284.892 92.6862H285.878C285.906 92.6856 285.934 92.6792 285.959 92.6674C285.984 92.6556 286.006 92.6387 286.024 92.6177C286.043 92.5967 286.056 92.5721 286.064 92.5455C286.072 92.5189 286.075 92.4909 286.071 92.4633V72.0906C286.071 71.952 286.017 71.8976 285.878 71.8976L285.876 71.9058ZM279.768 85.8337C279.768 83.0095 280.583 80.2152 282.28 80.2152C282.888 80.2202 283.476 80.4386 283.94 80.8322V90.778C283.475 91.0495 282.951 91.2017 282.413 91.2211C280.581 91.2211 279.771 89.0438 279.771 85.8337H279.768Z" fill="#1C1A33"/>
<path d="M292.446 78.5275C289.59 78.5275 288.182 82.265 288.182 86.3341C288.182 90.5935 290.193 92.98 292.775 92.98C293.833 92.9421 294.866 92.6473 295.784 92.1211C295.834 92.0985 295.873 92.0574 295.893 92.0067C295.912 91.9559 295.912 91.8995 295.89 91.8493L295.673 90.9495C295.67 90.9239 295.662 90.8992 295.649 90.8769C295.636 90.8545 295.619 90.835 295.598 90.8194C295.578 90.8039 295.554 90.7928 295.529 90.7866C295.504 90.7805 295.478 90.7795 295.453 90.7837C294.83 90.9408 294.192 91.0319 293.55 91.0556C291.435 91.0556 290.465 89.1746 290.465 86.6739V86.0677C291.023 86.146 291.584 86.195 292.147 86.2145H296.138V85.0593C296.138 80.7972 294.645 78.5166 292.449 78.5166L292.446 78.5275ZM292.308 84.4939C291.677 84.4939 290.527 84.6488 290.527 84.6488C290.527 84.6488 290.544 84.1895 290.598 83.7491C290.845 81.4115 291.414 80.2318 292.365 80.2318C293.202 80.2318 293.773 81.4414 293.912 83.5588C293.939 83.9992 293.939 84.4939 293.939 84.4939H292.308Z" fill="#1C1A33"/>
<path d="M264.408 80.2753C263.774 79.0249 262.643 78.4786 261.35 78.4786C260.318 78.5321 259.306 78.7715 258.36 79.1853C258.191 79.2614 258.088 79.3294 258.088 79.4571C258.096 79.546 258.124 79.6317 258.172 79.7072L258.756 80.9575C258.772 81.008 258.804 81.0521 258.846 81.0834C258.889 81.1147 258.94 81.1316 258.993 81.1315C259.078 81.1253 259.159 81.0941 259.227 81.0418C260.072 80.4982 260.692 80.2046 261.181 80.2046C261.831 80.2046 262.268 80.6341 262.54 81.2919C262.807 82.0627 262.926 82.877 262.891 83.692C262.891 83.8143 262.891 83.9638 262.891 83.9638C262.304 83.649 261.653 83.4724 260.988 83.4474C258.509 83.4474 257.183 85.804 257.183 88.3211C257.183 91.0392 258.746 93.0262 260.621 93.0262C261.668 93.0262 262.614 92.4119 263.247 91.6372C263.247 91.6372 263.584 92.4527 263.627 92.5397C263.642 92.5842 263.672 92.6221 263.711 92.6465C263.751 92.671 263.799 92.6803 263.845 92.6729H264.848C264.876 92.6723 264.903 92.6659 264.928 92.6541C264.953 92.6423 264.976 92.6254 264.994 92.6044C265.012 92.5833 265.026 92.5587 265.034 92.5322C265.042 92.5056 265.044 92.4776 265.041 92.45V84.6515C265.041 82.7352 264.943 81.2729 264.437 80.2753H264.408ZM262.88 90.4983C262.456 90.936 261.88 91.1947 261.271 91.2214C261.018 91.2209 260.769 91.1566 260.548 91.0345C260.326 90.9124 260.139 90.7364 260.004 90.5228C259.605 89.9792 259.42 89.1229 259.42 88.1824C259.42 86.6956 259.963 85.168 261.132 85.168C261.768 85.171 262.383 85.3884 262.88 85.785V90.4983Z" fill="#1C1A33"/>
<path d="M305.191 78.8073H303.664C303.597 78.803 303.532 78.8211 303.477 78.8585C303.422 78.896 303.382 78.9507 303.362 79.0139C303.264 79.2694 302.62 80.971 302.353 81.675C302.166 82.1779 301.655 83.6212 301.655 83.6212H301.595C301.595 83.6212 301.22 82.572 301.019 82.0474C300.856 81.6233 300.005 79.3781 299.896 79.1009C299.839 78.9514 299.774 78.8046 299.556 78.8046H297.882C297.843 78.8056 297.805 78.8156 297.771 78.8339C297.737 78.8522 297.708 78.8783 297.685 78.91C297.663 78.9418 297.649 78.9783 297.643 79.0166C297.638 79.055 297.641 79.0941 297.654 79.1308C297.713 79.2558 300.372 85.3337 300.372 85.3337C300.372 85.3337 297.51 92.1291 297.425 92.2922C297.408 92.3316 297.401 92.3745 297.404 92.4174C297.407 92.4602 297.42 92.5018 297.442 92.5386C297.464 92.5755 297.494 92.6066 297.531 92.6294C297.567 92.6523 297.608 92.6662 297.651 92.67H299.119C299.369 92.67 299.467 92.5395 299.543 92.3275C299.755 91.7377 300.067 90.9141 300.513 89.6447C300.807 88.802 301.274 87.3261 301.274 87.3261H301.326C301.326 87.3261 301.837 88.8319 302.024 89.3239C302.503 90.5688 303.112 92.1943 303.182 92.3656C303.253 92.5368 303.345 92.67 303.517 92.67H305.18C305.346 92.67 305.422 92.4824 305.343 92.3194C305.159 91.9279 303.579 88.0899 302.481 85.5647C302.481 85.5647 305.327 79.2803 305.381 79.1226C305.436 78.965 305.419 78.8019 305.186 78.8019L305.191 78.8073Z" fill="#1C1A33"/>
<path d="M258.885 69.8806H256.958C256.891 69.8714 256.823 69.8874 256.767 69.9256C256.711 69.9638 256.671 70.0214 256.656 70.0872C256.631 70.2095 253.764 78.9566 253.557 79.6851C253.41 80.2015 252.927 82.0227 252.812 82.4603L251.815 79.7422C251.573 78.9919 249.252 72.5009 249.184 72.2427C249.146 72.1014 249.08 71.922 248.83 71.922H246.949C246.911 71.9229 246.873 71.933 246.838 71.9513C246.804 71.9696 246.775 71.9957 246.753 72.0274C246.731 72.0591 246.716 72.0957 246.711 72.134C246.705 72.1723 246.709 72.2114 246.721 72.2482C246.767 72.3487 250.168 81.4002 251.54 84.8577V92.4686C251.54 92.6073 251.595 92.6915 251.733 92.6915H253.508C253.536 92.691 253.563 92.6846 253.589 92.6728C253.614 92.661 253.636 92.644 253.654 92.623C253.672 92.602 253.686 92.5774 253.694 92.5508C253.702 92.5242 253.705 92.4962 253.701 92.4686V84.9121C254.846 81.7128 259.029 70.3291 259.072 70.2014C259.116 70.0736 259.11 69.8806 258.877 69.8806H258.885Z" fill="#E52620"/>
</g>
<path d="M249.252 210H69.7475C69.0188 210 68.32 209.789 67.8048 209.414C67.2895 209.039 67 208.53 67 208C67 207.47 67.2895 206.961 67.8048 206.586C68.32 206.211 69.0188 206 69.7475 206H249.252C249.981 206 250.68 206.211 251.195 206.586C251.711 206.961 252 207.47 252 208C252 208.53 251.711 209.039 251.195 209.414C250.68 209.789 249.981 210 249.252 210Z" fill="white" fill-opacity="0.54"/>
<path d="M181.428 226.319H68.8732C68.4163 226.319 67.9781 226.109 67.655 225.734C67.3319 225.358 67.1504 224.85 67.1504 224.319C67.1504 223.789 67.3319 223.28 67.655 222.905C67.9781 222.53 68.4163 222.319 68.8732 222.319H181.428C181.885 222.319 182.323 222.53 182.646 222.905C182.969 223.28 183.15 223.789 183.15 224.319C183.15 224.85 182.969 225.358 182.646 225.734C182.323 226.109 181.885 226.319 181.428 226.319Z" fill="white" fill-opacity="0.54"/>
<path d="M215.061 241.161H69.5168C68.926 241.161 68.3593 240.95 67.9416 240.575C67.5238 240.2 67.2891 239.692 67.2891 239.161C67.2891 238.631 67.5238 238.122 67.9416 237.747C68.3593 237.372 68.926 237.161 69.5168 237.161H215.061C215.652 237.161 216.219 237.372 216.637 237.747C217.054 238.122 217.289 238.631 217.289 239.161C217.289 239.692 217.054 240.2 216.637 240.575C216.219 240.95 215.652 241.161 215.061 241.161Z" fill="white" fill-opacity="0.54"/>
<defs>
<linearGradient id="paint0_linear_1076_2885" x1="128.886" y1="126.465" x2="128.886" y2="87.0001" gradientUnits="userSpaceOnUse">
<stop stop-color="#808080" stop-opacity="0.25"/>
<stop offset="0.54" stop-color="#808080" stop-opacity="0.12"/>
<stop offset="1" stop-color="#808080" stop-opacity="0.1"/>
</linearGradient>
<linearGradient id="paint1_linear_1076_2885" x1="128.665" y1="118.719" x2="128.665" y2="97.9165" gradientUnits="userSpaceOnUse">
<stop stop-color="#808080" stop-opacity="0.25"/>
<stop offset="0.54" stop-color="#808080" stop-opacity="0.12"/>
<stop offset="1" stop-color="#808080" stop-opacity="0.1"/>
</linearGradient>
<linearGradient id="paint2_linear_1076_2885" x1="156.703" y1="126.416" x2="156.703" y2="88.3648" gradientUnits="userSpaceOnUse">
<stop stop-color="#808080" stop-opacity="0.25"/>
<stop offset="0.54" stop-color="#808080" stop-opacity="0.12"/>
<stop offset="1" stop-color="#808080" stop-opacity="0.1"/>
</linearGradient>
<linearGradient id="paint3_linear_1076_2885" x1="201.165" y1="131.357" x2="201.165" y2="100.851" gradientUnits="userSpaceOnUse">
<stop stop-color="#808080" stop-opacity="0.25"/>
<stop offset="0.54" stop-color="#808080" stop-opacity="0.12"/>
<stop offset="1" stop-color="#808080" stop-opacity="0.1"/>
</linearGradient>
<linearGradient id="paint4_linear_1076_2885" x1="228.496" y1="125.553" x2="228.496" y2="105.966" gradientUnits="userSpaceOnUse">
<stop stop-color="#808080" stop-opacity="0.25"/>
<stop offset="0.54" stop-color="#808080" stop-opacity="0.12"/>
<stop offset="1" stop-color="#808080" stop-opacity="0.1"/>
</linearGradient>
<linearGradient id="paint5_linear_1076_2885" x1="238.295" y1="125.249" x2="238.295" y2="106.54" gradientUnits="userSpaceOnUse">
<stop stop-color="#808080" stop-opacity="0.25"/>
<stop offset="0.54" stop-color="#808080" stop-opacity="0.12"/>
<stop offset="1" stop-color="#808080" stop-opacity="0.1"/>
</linearGradient>
<linearGradient id="paint6_linear_1076_2885" x1="248.17" y1="125.249" x2="248.17" y2="111.919" gradientUnits="userSpaceOnUse">
<stop stop-color="#808080" stop-opacity="0.25"/>
<stop offset="0.54" stop-color="#808080" stop-opacity="0.12"/>
<stop offset="1" stop-color="#808080" stop-opacity="0.1"/>
</linearGradient>
<linearGradient id="paint7_linear_1076_2885" x1="262.307" y1="131.379" x2="262.307" y2="111.881" gradientUnits="userSpaceOnUse">
<stop stop-color="#808080" stop-opacity="0.25"/>
<stop offset="0.54" stop-color="#808080" stop-opacity="0.12"/>
<stop offset="1" stop-color="#808080" stop-opacity="0.1"/>
</linearGradient>
<linearGradient id="paint8_linear_1076_2885" x1="271.19" y1="93.507" x2="271.19" y2="78.4456" gradientUnits="userSpaceOnUse">
<stop stop-color="#808080" stop-opacity="0.25"/>
<stop offset="0.54" stop-color="#808080" stop-opacity="0.12"/>
<stop offset="1" stop-color="#808080" stop-opacity="0.1"/>
</linearGradient>
<linearGradient id="paint9_linear_1076_2885" x1="282.212" y1="93.888" x2="282.212" y2="71.1994" gradientUnits="userSpaceOnUse">
<stop stop-color="#808080" stop-opacity="0.25"/>
<stop offset="0.54" stop-color="#808080" stop-opacity="0.12"/>
<stop offset="1" stop-color="#808080" stop-opacity="0.1"/>
</linearGradient>
<linearGradient id="paint10_linear_1076_2885" x1="293.351" y1="93.8335" x2="293.351" y2="78.3101" gradientUnits="userSpaceOnUse">
<stop stop-color="#808080" stop-opacity="0.25"/>
<stop offset="0.54" stop-color="#808080" stop-opacity="0.12"/>
<stop offset="1" stop-color="#808080" stop-opacity="0.1"/>
</linearGradient>
<linearGradient id="paint11_linear_1076_2885" x1="259.972" y1="93.8874" x2="259.972" y2="78.2552" gradientUnits="userSpaceOnUse">
<stop stop-color="#808080" stop-opacity="0.25"/>
<stop offset="0.54" stop-color="#808080" stop-opacity="0.12"/>
<stop offset="1" stop-color="#808080" stop-opacity="0.1"/>
</linearGradient>
<linearGradient id="paint12_linear_1076_2885" x1="303.286" y1="93.5073" x2="303.286" y2="78.6117" gradientUnits="userSpaceOnUse">
<stop stop-color="#808080" stop-opacity="0.25"/>
<stop offset="0.54" stop-color="#808080" stop-opacity="0.12"/>
<stop offset="1" stop-color="#808080" stop-opacity="0.1"/>
</linearGradient>
<linearGradient id="paint13_linear_1076_2885" x1="251.187" y1="93.5072" x2="251.187" y2="69.0246" gradientUnits="userSpaceOnUse">
<stop stop-color="#808080" stop-opacity="0.25"/>
<stop offset="0.54" stop-color="#808080" stop-opacity="0.12"/>
<stop offset="1" stop-color="#808080" stop-opacity="0.1"/>
</linearGradient>
<clipPath id="clip0_1076_2885">
<rect width="352" height="146" fill="white" transform="translate(36.5322 42.0001)"/>
</clipPath>
</defs>
</svg>
